<?xml version="1.0" standalone="no"?><!DOCTYPE svg PUBLIC "-//W3C//DTD SVG 1.1//EN" "http://www.w3.org/Graphics/SVG/1.1/DTD/svg11.dtd"><svg t="1669298318602" class="icon" viewBox="0 0 1024 1024" version="1.1" xmlns="http://www.w3.org/2000/svg" p-id="16263" xmlns:xlink="http://www.w3.org/1999/xlink" width="200" height="200"><path d="M768 853.333333a42.666667 42.666667 0 1 0 85.333333 0h-85.333333z m-165.333333 0a42.666667 42.666667 0 1 0 85.333333 0h-85.333333zM213.333333 213.333333h597.333334V128H213.333333v85.333333z m640 42.666667v128h85.333334V256h-85.333334z m-42.666666 170.666667H213.333333v85.333333h597.333334v-85.333333zM170.666667 384V256H85.333333v128h85.333334z m170.666666 362.666667A64 64 0 0 1 277.333333 810.666667v85.333333a149.333333 149.333333 0 0 0 149.333334-149.333333H341.333333zM277.333333 810.666667A64 64 0 0 1 213.333333 746.666667H128A149.333333 149.333333 0 0 0 277.333333 896v-85.333333zM213.333333 746.666667A64 64 0 0 1 277.333333 682.666667v-85.333334A149.333333 149.333333 0 0 0 128 746.666667h85.333333zM277.333333 682.666667A64 64 0 0 1 341.333333 746.666667h85.333334A149.333333 149.333333 0 0 0 277.333333 597.333333v85.333334zM768 757.333333V853.333333h85.333333v-96h-85.333333z m-122.666667 32h154.666667v-85.333333h-154.666667v85.333333z m-42.666666-42.666666V853.333333h85.333333v-106.666666h-85.333333zM384 789.333333h261.333333v-85.333333H384v85.333333z m469.333333-32c0-29.44-23.893333-53.333333-53.333333-53.333333v85.333333a32 32 0 0 1-32-32h85.333333zM213.333333 426.666667a42.666667 42.666667 0 0 1-42.666666-42.666667H85.333333a128 128 0 0 0 128 128v-85.333333z m640-42.666667a42.666667 42.666667 0 0 1-42.666666 42.666667v85.333333a128 128 0 0 0 128-128h-85.333334z m-42.666666-170.666667a42.666667 42.666667 0 0 1 42.666666 42.666667h85.333334a128 128 0 0 0-128-128v85.333333zM213.333333 128a128 128 0 0 0-128 128h85.333334a42.666667 42.666667 0 0 1 42.666666-42.666667V128z" fill="#000000" p-id="16264"></path><path d="M320 320m-64 0a64 64 0 1 0 128 0 64 64 0 1 0-128 0Z" fill="#000000" p-id="16265"></path><path d="M512 320m-64 0a64 64 0 1 0 128 0 64 64 0 1 0-128 0Z" fill="#000000" p-id="16266"></path><path d="M704 320m-64 0a64 64 0 1 0 128 0 64 64 0 1 0-128 0Z" fill="#000000" p-id="16267"></path></svg>